<mxfile host="app.diagrams.net" modified="2023-03-05T15:05:10.720Z" agent="5.0 (Windows NT 6.1; Win64; x64) AppleWebKit/537.36 (KHTML, like Gecko) Chrome/100.0.4896.127 Safari/537.36" etag="whTVHFegL5t4BIoaV2za" version="21.0.2" type="github">
  <diagram name="第 1 页" id="gHzCccOLj3iz3_N4J3XB">
    <mxGraphModel dx="1434" dy="802" grid="1" gridSize="10" guides="1" tooltips="1" connect="1" arrows="1" fold="1" page="1" pageScale="1" pageWidth="827" pageHeight="1169" math="0" shadow="0">
      <root>
        <mxCell id="0" />
        <mxCell id="1" parent="0" />
        <mxCell id="iKYRLK-APzfdP7Sp7buY-7" style="rounded=0;orthogonalLoop=1;jettySize=auto;html=1;exitX=0;exitY=0;exitDx=0;exitDy=0;entryX=1;entryY=0.5;entryDx=0;entryDy=0;" edge="1" parent="1" source="iKYRLK-APzfdP7Sp7buY-1" target="iKYRLK-APzfdP7Sp7buY-4">
          <mxGeometry relative="1" as="geometry" />
        </mxCell>
        <mxCell id="iKYRLK-APzfdP7Sp7buY-8" style="rounded=0;orthogonalLoop=1;jettySize=auto;html=1;exitX=1;exitY=0;exitDx=0;exitDy=0;entryX=0;entryY=0.5;entryDx=0;entryDy=0;" edge="1" parent="1" source="iKYRLK-APzfdP7Sp7buY-1" target="iKYRLK-APzfdP7Sp7buY-5">
          <mxGeometry relative="1" as="geometry" />
        </mxCell>
        <mxCell id="iKYRLK-APzfdP7Sp7buY-1" value="建行卡" style="ellipse;whiteSpace=wrap;html=1;" vertex="1" parent="1">
          <mxGeometry x="294" y="230" width="120" height="80" as="geometry" />
        </mxCell>
        <mxCell id="iKYRLK-APzfdP7Sp7buY-3" style="edgeStyle=orthogonalEdgeStyle;rounded=0;orthogonalLoop=1;jettySize=auto;html=1;exitX=0.5;exitY=0;exitDx=0;exitDy=0;entryX=0.5;entryY=1;entryDx=0;entryDy=0;" edge="1" parent="1" source="iKYRLK-APzfdP7Sp7buY-2" target="iKYRLK-APzfdP7Sp7buY-1">
          <mxGeometry relative="1" as="geometry" />
        </mxCell>
        <mxCell id="iKYRLK-APzfdP7Sp7buY-2" value="工资" style="ellipse;whiteSpace=wrap;html=1;" vertex="1" parent="1">
          <mxGeometry x="294" y="380" width="120" height="80" as="geometry" />
        </mxCell>
        <mxCell id="iKYRLK-APzfdP7Sp7buY-6" style="rounded=0;orthogonalLoop=1;jettySize=auto;html=1;exitX=1;exitY=1;exitDx=0;exitDy=0;entryX=0.1;entryY=0.15;entryDx=0;entryDy=0;entryPerimeter=0;" edge="1" parent="1" source="iKYRLK-APzfdP7Sp7buY-4" target="iKYRLK-APzfdP7Sp7buY-1">
          <mxGeometry relative="1" as="geometry" />
        </mxCell>
        <mxCell id="iKYRLK-APzfdP7Sp7buY-4" value="东方财富" style="ellipse;whiteSpace=wrap;html=1;" vertex="1" parent="1">
          <mxGeometry x="150" y="120" width="120" height="80" as="geometry" />
        </mxCell>
        <mxCell id="iKYRLK-APzfdP7Sp7buY-9" style="rounded=0;orthogonalLoop=1;jettySize=auto;html=1;exitX=0.5;exitY=1;exitDx=0;exitDy=0;entryX=0.908;entryY=0.138;entryDx=0;entryDy=0;entryPerimeter=0;" edge="1" parent="1" source="iKYRLK-APzfdP7Sp7buY-5" target="iKYRLK-APzfdP7Sp7buY-1">
          <mxGeometry relative="1" as="geometry" />
        </mxCell>
        <mxCell id="iKYRLK-APzfdP7Sp7buY-5" value="同花顺" style="ellipse;whiteSpace=wrap;html=1;" vertex="1" parent="1">
          <mxGeometry x="460" y="120" width="120" height="80" as="geometry" />
        </mxCell>
      </root>
    </mxGraphModel>
  </diagram>
</mxfile>
